<svg xmlns="http://www.w3.org/2000/svg" width="30.601" height="25.033" viewBox="0 0 30.601 25.033">
  <g id="Group_14" data-name="Group 14" transform="translate(-787.598 -417.518)">
    <path id="Path_7" data-name="Path 7" d="M817.814,427.685a30.071,30.071,0,0,1-7.308-2.934,7.52,7.52,0,0,0-7.14-.142,4.323,4.323,0,0,0-2.193,2.075c2.689-.664,4.411.183,4.845,2.363a3.209,3.209,0,0,1-.483,2.573c-.867,1.251-2.16,1.3-3.54,1.105a3.4,3.4,0,0,0,2.569,1.976,7.457,7.457,0,0,0,6.731-1.814,44.354,44.354,0,0,1,3.552-2.94,34.242,34.242,0,0,1,3.352-2.071C818.1,427.709,817.945,427.721,817.814,427.685Z" fill="#cd3d1e"/>
    <path id="Path_8" data-name="Path 8" d="M795.272,431.888a1.992,1.992,0,0,1,.866.214,1.779,1.779,0,0,1,1.051,2.069,2.013,2.013,0,0,1-1.971,1.523,1.672,1.672,0,0,1-1.674-1.552c-.063-.477-.225-.359-.485-.188a3.644,3.644,0,0,0-1.419,1.953c-.969,3.053,1.744,6.6,5.095,6.643a5.959,5.959,0,0,0,5.469-8.195,6.5,6.5,0,0,0-5.428-3.82c-.42-.059-.856-.042-1.287-.067a1.981,1.981,0,0,0-.007-.2c.348-.126.7-.252,1.051-.385a7.41,7.41,0,0,0,4.313-3.924,6.165,6.165,0,0,0-1.131-6.743,5.848,5.848,0,0,0-6.432-1.225,5.128,5.128,0,0,0-2.769,6.494,4.06,4.06,0,0,0,2.039,2.275,2.018,2.018,0,0,1,.282-1.563,1.928,1.928,0,0,1,2.627-.358,1.979,1.979,0,0,1,.374,2.871A2.782,2.782,0,0,1,794,428.736a8.83,8.83,0,0,1-2.922-.136q-.9-.17-1.767-.407a1.356,1.356,0,0,0-1.713,1.2h0a1.377,1.377,0,0,0,.95,1.411A19.492,19.492,0,0,0,795.272,431.888Z" fill="#cd3d1e"/>
    <path id="Path_9" data-name="Path 9" d="M803.213,432.245a2.146,2.146,0,0,0,1.884-.978,2.8,2.8,0,0,0-.005-3.066,2.493,2.493,0,0,0-2.6-1.232,3.458,3.458,0,0,0-2.178,1.01,10.219,10.219,0,0,1-2.771,2.091,9.9,9.9,0,0,1,3.186,1.453A4.112,4.112,0,0,0,803.213,432.245Z" fill="#cd3d1e"/>
  </g>
</svg>
